<svg width="577" height="119" viewBox="0 0 577 119" fill="none" xmlns="http://www.w3.org/2000/svg">
<path d="M141.155 1.9V8.75H131.855V37H123.305V8.75H114.005V1.9H141.155ZM143.746 23C143.746 20.1333 144.279 17.6167 145.346 15.45C146.446 13.2833 147.929 11.6167 149.796 10.45C151.662 9.28333 153.746 8.7 156.046 8.7C158.012 8.7 159.729 9.1 161.196 9.9C162.696 10.7 163.846 11.75 164.646 13.05V9.1H173.196V37H164.646V33.05C163.812 34.35 162.646 35.4 161.146 36.2C159.679 37 157.962 37.4 155.996 37.4C153.729 37.4 151.662 36.8167 149.796 35.65C147.929 34.45 146.446 32.7667 145.346 30.6C144.279 28.4 143.746 25.8667 143.746 23ZM164.646 23.05C164.646 20.9167 164.046 19.2333 162.846 18C161.679 16.7667 160.246 16.15 158.546 16.15C156.846 16.15 155.396 16.7667 154.196 18C153.029 19.2 152.446 20.8667 152.446 23C152.446 25.1333 153.029 26.8333 154.196 28.1C155.396 29.3333 156.846 29.95 158.546 29.95C160.246 29.95 161.679 29.3333 162.846 28.1C164.046 26.8667 164.646 25.1833 164.646 23.05ZM187.931 -4.76837e-07V37H179.381V-4.76837e-07H187.931ZM211.177 37L202.677 25.3V37H194.127V-4.76837e-07H202.677V20.45L211.127 9.1H221.677L210.077 23.1L221.777 37H211.177ZM251.181 29.75V37H246.831C243.731 37 241.315 36.25 239.581 34.75C237.848 33.2167 236.981 30.7333 236.981 27.3V16.2H233.581V9.1H236.981V2.3H245.531V9.1H251.131V16.2H245.531V27.4C245.531 28.2333 245.731 28.8333 246.131 29.2C246.531 29.5667 247.198 29.75 248.131 29.75H251.181ZM268.644 37.4C265.91 37.4 263.444 36.8167 261.244 35.65C259.077 34.4833 257.36 32.8167 256.094 30.65C254.86 28.4833 254.244 25.95 254.244 23.05C254.244 20.1833 254.877 17.6667 256.144 15.5C257.41 13.3 259.144 11.6167 261.344 10.45C263.544 9.28333 266.01 8.7 268.744 8.7C271.477 8.7 273.944 9.28333 276.144 10.45C278.344 11.6167 280.077 13.3 281.344 15.5C282.61 17.6667 283.244 20.1833 283.244 23.05C283.244 25.9167 282.594 28.45 281.294 30.65C280.027 32.8167 278.277 34.4833 276.044 35.65C273.844 36.8167 271.377 37.4 268.644 37.4ZM268.644 30C270.277 30 271.66 29.4 272.794 28.2C273.96 27 274.544 25.2833 274.544 23.05C274.544 20.8167 273.977 19.1 272.844 17.9C271.744 16.7 270.377 16.1 268.744 16.1C267.077 16.1 265.694 16.7 264.594 17.9C263.494 19.0667 262.944 20.7833 262.944 23.05C262.944 25.2833 263.477 27 264.544 28.2C265.644 29.4 267.01 30 268.644 30ZM321.675 13C321.042 11.8333 320.125 10.95 318.925 10.35C317.759 9.71666 316.375 9.4 314.775 9.4C312.009 9.4 309.792 10.3167 308.125 12.15C306.459 13.95 305.625 16.3667 305.625 19.4C305.625 22.6333 306.492 25.1667 308.225 27C309.992 28.8 312.409 29.7 315.475 29.7C317.575 29.7 319.342 29.1667 320.775 28.1C322.242 27.0333 323.309 25.5 323.975 23.5H313.125V17.2H331.725V25.15C331.092 27.2833 330.009 29.2667 328.475 31.1C326.975 32.9333 325.059 34.4167 322.725 35.55C320.392 36.6833 317.759 37.25 314.825 37.25C311.359 37.25 308.259 36.5 305.525 35C302.825 33.4667 300.709 31.35 299.175 28.65C297.675 25.95 296.925 22.8667 296.925 19.4C296.925 15.9333 297.675 12.85 299.175 10.15C300.709 7.41667 302.825 5.3 305.525 3.8C308.225 2.26666 311.309 1.5 314.775 1.5C318.975 1.5 322.509 2.51666 325.375 4.55C328.275 6.58333 330.192 9.4 331.125 13H321.675ZM359.761 13C359.128 11.8333 358.211 10.95 357.011 10.35C355.845 9.71666 354.461 9.4 352.861 9.4C350.095 9.4 347.878 10.3167 346.211 12.15C344.545 13.95 343.711 16.3667 343.711 19.4C343.711 22.6333 344.578 25.1667 346.311 27C348.078 28.8 350.495 29.7 353.561 29.7C355.661 29.7 357.428 29.1667 358.861 28.1C360.328 27.0333 361.395 25.5 362.061 23.5H351.211V17.2H369.811V25.15C369.178 27.2833 368.095 29.2667 366.561 31.1C365.061 32.9333 363.145 34.4167 360.811 35.55C358.478 36.6833 355.845 37.25 352.911 37.25C349.445 37.25 346.345 36.5 343.611 35C340.911 33.4667 338.795 31.35 337.261 28.65C335.761 25.95 335.011 22.8667 335.011 19.4C335.011 15.9333 335.761 12.85 337.261 10.15C338.795 7.41667 340.911 5.3 343.611 3.8C346.311 2.26666 349.395 1.5 352.861 1.5C357.061 1.5 360.595 2.51666 363.461 4.55C366.361 6.58333 368.278 9.4 369.211 13H359.761ZM399.797 1.9V8.75H390.497V37H381.947V8.75H372.647V1.9H399.797ZM436.534 30.8H423.434L421.334 37H412.384L425.084 1.9H434.984L447.684 37H438.634L436.534 30.8ZM434.334 24.2L429.984 11.35L425.684 24.2H434.334ZM460.099 1.9V37H451.549V1.9H460.099ZM13.9563 112.35C11.3896 112.35 9.08958 111.933 7.05625 111.1C5.02292 110.267 3.38958 109.033 2.15625 107.4C0.95625 105.767 0.322917 103.8 0.25625 101.5H9.35625C9.48958 102.8 9.93958 103.8 10.7063 104.5C11.4729 105.167 12.4729 105.5 13.7063 105.5C14.9729 105.5 15.9729 105.217 16.7063 104.65C17.4396 104.05 17.8063 103.233 17.8063 102.2C17.8063 101.333 17.5063 100.617 16.9063 100.05C16.3396 99.4833 15.6229 99.0167 14.7563 98.65C13.9229 98.2833 12.7229 97.8667 11.1563 97.4C8.88958 96.7 7.03958 96 5.60625 95.3C4.17292 94.6 2.93958 93.5667 1.90625 92.2C0.872917 90.8333 0.35625 89.05 0.35625 86.85C0.35625 83.5833 1.53958 81.0333 3.90625 79.2C6.27292 77.3333 9.35625 76.4 13.1563 76.4C17.0229 76.4 20.1396 77.3333 22.5063 79.2C24.8729 81.0333 26.1396 83.6 26.3063 86.9H17.0563C16.9896 85.7667 16.5729 84.8833 15.8063 84.25C15.0396 83.5833 14.0563 83.25 12.8562 83.25C11.8229 83.25 10.9896 83.5333 10.3563 84.1C9.72292 84.6333 9.40625 85.4167 9.40625 86.45C9.40625 87.5833 9.93958 88.4667 11.0062 89.1C12.0729 89.7333 13.7396 90.4167 16.0063 91.15C18.2729 91.9167 20.1063 92.65 21.5063 93.35C22.9396 94.05 24.1729 95.0667 25.2063 96.4C26.2396 97.7333 26.7563 99.45 26.7563 101.55C26.7563 103.55 26.2396 105.367 25.2063 107C24.2063 108.633 22.7396 109.933 20.8063 110.9C18.8729 111.867 16.5896 112.35 13.9563 112.35ZM67.618 83.8C71.0846 83.8 73.8346 84.85 75.868 86.95C77.9346 89.05 78.968 91.9667 78.968 95.7V112H70.468V96.85C70.468 95.05 69.9846 93.6667 69.018 92.7C68.0846 91.7 66.7846 91.2 65.118 91.2C63.4513 91.2 62.1346 91.7 61.168 92.7C60.2346 93.6667 59.768 95.05 59.768 96.85V112H51.268V96.85C51.268 95.05 50.7846 93.6667 49.818 92.7C48.8846 91.7 47.5846 91.2 45.918 91.2C44.2513 91.2 42.9346 91.7 41.968 92.7C41.0346 93.6667 40.568 95.05 40.568 96.85V112H32.018V84.1H40.568V87.6C41.4346 86.4333 42.568 85.5167 43.968 84.85C45.368 84.15 46.9513 83.8 48.718 83.8C50.818 83.8 52.6846 84.25 54.318 85.15C55.9846 86.05 57.2846 87.3333 58.218 89C59.1846 87.4667 60.5013 86.2167 62.168 85.25C63.8346 84.2833 65.6513 83.8 67.618 83.8ZM83.2477 98C83.2477 95.1333 83.781 92.6167 84.8477 90.45C85.9477 88.2833 87.431 86.6167 89.2977 85.45C91.1643 84.2833 93.2477 83.7 95.5477 83.7C97.5143 83.7 99.231 84.1 100.698 84.9C102.198 85.7 103.348 86.75 104.148 88.05V84.1H112.698V112H104.148V108.05C103.314 109.35 102.148 110.4 100.648 111.2C99.181 112 97.4643 112.4 95.4977 112.4C93.231 112.4 91.1643 111.817 89.2977 110.65C87.431 109.45 85.9477 107.767 84.8477 105.6C83.781 103.4 83.2477 100.867 83.2477 98ZM104.148 98.05C104.148 95.9167 103.548 94.2333 102.348 93C101.181 91.7667 99.7477 91.15 98.0477 91.15C96.3477 91.15 94.8977 91.7667 93.6977 93C92.531 94.2 91.9477 95.8667 91.9477 98C91.9477 100.133 92.531 101.833 93.6977 103.1C94.8977 104.333 96.3477 104.95 98.0477 104.95C99.7477 104.95 101.181 104.333 102.348 103.1C103.548 101.867 104.148 100.183 104.148 98.05ZM127.433 88.75C128.433 87.2167 129.683 86.0167 131.183 85.15C132.683 84.25 134.35 83.8 136.183 83.8V92.85H133.833C131.7 92.85 130.1 93.3167 129.033 94.25C127.967 95.15 127.433 96.75 127.433 99.05V112H118.883V84.1H127.433V88.75ZM155.82 104.75V112H151.47C148.37 112 145.953 111.25 144.22 109.75C142.487 108.217 141.62 105.733 141.62 102.3V91.2H138.22V84.1H141.62V77.3H150.17V84.1H155.77V91.2H150.17V102.4C150.17 103.233 150.37 103.833 150.77 104.2C151.17 104.567 151.837 104.75 152.77 104.75H155.82ZM186.882 97.6C186.882 98.4 186.832 99.2333 186.732 100.1H167.382C167.516 101.833 168.066 103.167 169.032 104.1C170.032 105 171.249 105.45 172.682 105.45C174.816 105.45 176.299 104.55 177.132 102.75H186.232C185.766 104.583 184.916 106.233 183.682 107.7C182.482 109.167 180.966 110.317 179.132 111.15C177.299 111.983 175.249 112.4 172.982 112.4C170.249 112.4 167.816 111.817 165.682 110.65C163.549 109.483 161.882 107.817 160.682 105.65C159.482 103.483 158.882 100.95 158.882 98.05C158.882 95.15 159.466 92.6167 160.632 90.45C161.832 88.2833 163.499 86.6167 165.632 85.45C167.766 84.2833 170.216 83.7 172.982 83.7C175.682 83.7 178.082 84.2667 180.182 85.4C182.282 86.5333 183.916 88.15 185.082 90.25C186.282 92.35 186.882 94.8 186.882 97.6ZM178.132 95.35C178.132 93.8833 177.632 92.7167 176.632 91.85C175.632 90.9833 174.382 90.55 172.882 90.55C171.449 90.55 170.232 90.9667 169.232 91.8C168.266 92.6333 167.666 93.8167 167.432 95.35H178.132ZM199.943 88.75C200.943 87.2167 202.193 86.0167 203.693 85.15C205.193 84.25 206.86 83.8 208.693 83.8V92.85H206.343C204.21 92.85 202.61 93.3167 201.543 94.25C200.476 95.15 199.943 96.75 199.943 99.05V112H191.393V84.1H199.943V88.75ZM221.98 104.1L216.43 118.45H210.98L213.88 104.1H221.98ZM260.581 76.9V83.75H246.281V91.15H256.981V97.8H246.281V112H237.731V76.9H260.581ZM263.375 98C263.375 95.1333 263.908 92.6167 264.975 90.45C266.075 88.2833 267.558 86.6167 269.425 85.45C271.291 84.2833 273.375 83.7 275.675 83.7C277.641 83.7 279.358 84.1 280.825 84.9C282.325 85.7 283.475 86.75 284.275 88.05V84.1H292.825V112H284.275V108.05C283.441 109.35 282.275 110.4 280.775 111.2C279.308 112 277.591 112.4 275.625 112.4C273.358 112.4 271.291 111.817 269.425 110.65C267.558 109.45 266.075 107.767 264.975 105.6C263.908 103.4 263.375 100.867 263.375 98ZM284.275 98.05C284.275 95.9167 283.675 94.2333 282.475 93C281.308 91.7667 279.875 91.15 278.175 91.15C276.475 91.15 275.025 91.7667 273.825 93C272.658 94.2 272.075 95.8667 272.075 98C272.075 100.133 272.658 101.833 273.825 103.1C275.025 104.333 276.475 104.95 278.175 104.95C279.875 104.95 281.308 104.333 282.475 103.1C283.675 101.867 284.275 100.183 284.275 98.05ZM310.36 112.4C307.927 112.4 305.76 111.983 303.86 111.15C301.96 110.317 300.46 109.183 299.36 107.75C298.26 106.283 297.643 104.65 297.51 102.85H305.96C306.06 103.817 306.51 104.6 307.31 105.2C308.11 105.8 309.093 106.1 310.26 106.1C311.327 106.1 312.143 105.9 312.71 105.5C313.31 105.067 313.61 104.517 313.61 103.85C313.61 103.05 313.193 102.467 312.36 102.1C311.527 101.7 310.177 101.267 308.31 100.8C306.31 100.333 304.643 99.85 303.31 99.35C301.977 98.8167 300.827 98 299.86 96.9C298.893 95.7667 298.41 94.25 298.41 92.35C298.41 90.75 298.843 89.3 299.71 88C300.61 86.6667 301.91 85.6167 303.61 84.85C305.343 84.0833 307.393 83.7 309.76 83.7C313.26 83.7 316.01 84.5667 318.01 86.3C320.043 88.0333 321.21 90.3333 321.51 93.2H313.61C313.477 92.2333 313.043 91.4667 312.31 90.9C311.61 90.3333 310.677 90.05 309.51 90.05C308.51 90.05 307.743 90.25 307.21 90.65C306.677 91.0167 306.41 91.5333 306.41 92.2C306.41 93 306.827 93.6 307.66 94C308.527 94.4 309.86 94.8 311.66 95.2C313.727 95.7333 315.41 96.2667 316.71 96.8C318.01 97.3 319.143 98.1333 320.11 99.3C321.11 100.433 321.627 101.967 321.66 103.9C321.66 105.533 321.193 107 320.26 108.3C319.36 109.567 318.043 110.567 316.31 111.3C314.61 112.033 312.627 112.4 310.36 112.4ZM342.441 104.75V112H338.091C334.991 112 332.574 111.25 330.841 109.75C329.108 108.217 328.241 105.733 328.241 102.3V91.2H324.841V84.1H328.241V77.3H336.791V84.1H342.391V91.2H336.791V102.4C336.791 103.233 336.991 103.833 337.391 104.2C337.791 104.567 338.458 104.75 339.391 104.75H342.441ZM373.504 97.6C373.504 98.4 373.454 99.2333 373.354 100.1H354.004C354.137 101.833 354.687 103.167 355.654 104.1C356.654 105 357.87 105.45 359.304 105.45C361.437 105.45 362.92 104.55 363.754 102.75H372.854C372.387 104.583 371.537 106.233 370.304 107.7C369.104 109.167 367.587 110.317 365.754 111.15C363.92 111.983 361.87 112.4 359.604 112.4C356.87 112.4 354.437 111.817 352.304 110.65C350.17 109.483 348.504 107.817 347.304 105.65C346.104 103.483 345.504 100.95 345.504 98.05C345.504 95.15 346.087 92.6167 347.254 90.45C348.454 88.2833 350.12 86.6167 352.254 85.45C354.387 84.2833 356.837 83.7 359.604 83.7C362.304 83.7 364.704 84.2667 366.804 85.4C368.904 86.5333 370.537 88.15 371.704 90.25C372.904 92.35 373.504 94.8 373.504 97.6ZM364.754 95.35C364.754 93.8833 364.254 92.7167 363.254 91.85C362.254 90.9833 361.004 90.55 359.504 90.55C358.07 90.55 356.854 90.9667 355.854 91.8C354.887 92.6333 354.287 93.8167 354.054 95.35H364.754ZM386.564 88.75C387.564 87.2167 388.814 86.0167 390.314 85.15C391.814 84.25 393.481 83.8 395.314 83.8V92.85H392.964C390.831 92.85 389.231 93.3167 388.164 94.25C387.097 95.15 386.564 96.75 386.564 99.05V112H378.014V84.1H386.564V88.75ZM408.601 104.1L403.051 118.45H397.601L400.501 104.1H408.601ZM445.602 94C447.635 94.4333 449.269 95.45 450.502 97.05C451.735 98.6167 452.352 100.417 452.352 102.45C452.352 105.383 451.319 107.717 449.252 109.45C447.219 111.15 444.369 112 440.702 112H424.352V76.9H440.152C443.719 76.9 446.502 77.7167 448.502 79.35C450.535 80.9833 451.552 83.2 451.552 86C451.552 88.0667 451.002 89.7833 449.902 91.15C448.835 92.5167 447.402 93.4667 445.602 94ZM432.902 91.1H438.502C439.902 91.1 440.969 90.8 441.702 90.2C442.469 89.5667 442.852 88.65 442.852 87.45C442.852 86.25 442.469 85.3333 441.702 84.7C440.969 84.0667 439.902 83.75 438.502 83.75H432.902V91.1ZM439.202 105.1C440.635 105.1 441.735 104.783 442.502 104.15C443.302 103.483 443.702 102.533 443.702 101.3C443.702 100.067 443.285 99.1 442.452 98.4C441.652 97.7 440.535 97.35 439.102 97.35H432.902V105.1H439.202ZM483.611 97.6C483.611 98.4 483.561 99.2333 483.461 100.1H464.111C464.244 101.833 464.794 103.167 465.761 104.1C466.761 105 467.978 105.45 469.411 105.45C471.544 105.45 473.028 104.55 473.861 102.75H482.961C482.494 104.583 481.644 106.233 480.411 107.7C479.211 109.167 477.694 110.317 475.861 111.15C474.028 111.983 471.978 112.4 469.711 112.4C466.978 112.4 464.544 111.817 462.411 110.65C460.278 109.483 458.611 107.817 457.411 105.65C456.211 103.483 455.611 100.95 455.611 98.05C455.611 95.15 456.194 92.6167 457.361 90.45C458.561 88.2833 460.228 86.6167 462.361 85.45C464.494 84.2833 466.944 83.7 469.711 83.7C472.411 83.7 474.811 84.2667 476.911 85.4C479.011 86.5333 480.644 88.15 481.811 90.25C483.011 92.35 483.611 94.8 483.611 97.6ZM474.861 95.35C474.861 93.8833 474.361 92.7167 473.361 91.85C472.361 90.9833 471.111 90.55 469.611 90.55C468.178 90.55 466.961 90.9667 465.961 91.8C464.994 92.6333 464.394 93.8167 464.161 95.35H474.861ZM503.671 104.75V112H499.321C496.221 112 493.805 111.25 492.071 109.75C490.338 108.217 489.471 105.733 489.471 102.3V91.2H486.071V84.1H489.471V77.3H498.021V84.1H503.621V91.2H498.021V102.4C498.021 103.233 498.221 103.833 498.621 104.2C499.021 104.567 499.688 104.75 500.621 104.75H503.671ZM523.984 104.75V112H519.634C516.534 112 514.117 111.25 512.384 109.75C510.651 108.217 509.784 105.733 509.784 102.3V91.2H506.384V84.1H509.784V77.3H518.334V84.1H523.934V91.2H518.334V102.4C518.334 103.233 518.534 103.833 518.934 104.2C519.334 104.567 520.001 104.75 520.934 104.75H523.984ZM555.046 97.6C555.046 98.4 554.996 99.2333 554.896 100.1H535.546C535.68 101.833 536.23 103.167 537.196 104.1C538.196 105 539.413 105.45 540.846 105.45C542.98 105.45 544.463 104.55 545.296 102.75H554.396C553.93 104.583 553.08 106.233 551.846 107.7C550.646 109.167 549.13 110.317 547.296 111.15C545.463 111.983 543.413 112.4 541.146 112.4C538.413 112.4 535.98 111.817 533.846 110.65C531.713 109.483 530.046 107.817 528.846 105.65C527.646 103.483 527.046 100.95 527.046 98.05C527.046 95.15 527.63 92.6167 528.796 90.45C529.996 88.2833 531.663 86.6167 533.796 85.45C535.93 84.2833 538.38 83.7 541.146 83.7C543.846 83.7 546.246 84.2667 548.346 85.4C550.446 86.5333 552.08 88.15 553.246 90.25C554.446 92.35 555.046 94.8 555.046 97.6ZM546.296 95.35C546.296 93.8833 545.796 92.7167 544.796 91.85C543.796 90.9833 542.546 90.55 541.046 90.55C539.613 90.55 538.396 90.9667 537.396 91.8C536.43 92.6333 535.83 93.8167 535.596 95.35H546.296ZM568.107 88.75C569.107 87.2167 570.357 86.0167 571.857 85.15C573.357 84.25 575.024 83.8 576.857 83.8V92.85H574.507C572.374 92.85 570.774 93.3167 569.707 94.25C568.64 95.15 568.107 96.75 568.107 99.05V112H559.557V84.1H568.107V88.75Z" fill="url(#paint0_linear_1_61)"/>
<defs>
<linearGradient id="paint0_linear_1_61" x1="-2" y1="57" x2="578" y2="57" gradientUnits="userSpaceOnUse">
<stop stop-color="white" stop-opacity="0"/>
<stop offset="0.504916" stop-color="white"/>
<stop offset="1" stop-color="white" stop-opacity="0"/>
</linearGradient>
</defs>
</svg>
