<svg width="188" height="193" viewBox="0 0 188 193" fill="none" xmlns="http://www.w3.org/2000/svg">
<path d="M85.1269 3.8374C85.1269 3.8374 114.655 28.5899 123.444 33.5842C132.233 38.5784 141.998 42.7604 155.712 37.1135M4.45752 13.9211C24.2883 14.0892 88.3941 43.9119 123.444 73.9188C158.494 103.926 170.334 73.4147 175.376 57.785M4.45752 57.785C21.1364 57.785 86.5006 93.3371 123.444 120.808C160.387 148.279 174.872 105.346 184.451 87.5318M4.45752 101.145C26.8091 103.834 95.209 135.026 123.444 165.68C151.679 196.334 164.284 153.244 175.376 136.942M4.45752 142.488C25.6337 144.672 73.5319 157.008 95.7151 188.872" stroke="white" stroke-width="7" stroke-miterlimit="1.57213" stroke-linecap="round"/>
</svg>
